<?xml version="1.0" encoding="UTF-8" standalone="no"?>
<!-- Created with Inkscape (http://www.inkscape.org/) -->

<svg
   version="1.1"
   id="svg2"
   width="675.08197"
   height="675.08197"
   viewBox="0 0 675.08197 675.08197"
   sodipodi:docname="eco.svg"
   inkscape:version="1.2.2 (732a01da63, 2022-12-09)"
   xmlns:inkscape="http://www.inkscape.org/namespaces/inkscape"
   xmlns:sodipodi="http://sodipodi.sourceforge.net/DTD/sodipodi-0.dtd"
   xmlns="http://www.w3.org/2000/svg"
   xmlns:svg="http://www.w3.org/2000/svg">
  <sodipodi:namedview
     id="namedview6"
     pagecolor="#ffffff"
     bordercolor="#000000"
     borderopacity="0.25"
     inkscape:showpageshadow="2"
     inkscape:pageopacity="0.0"
     inkscape:pagecheckerboard="0"
     inkscape:deskcolor="#d1d1d1"
     showgrid="false"
     inkscape:zoom="0.34958727"
     inkscape:cx="298.92393"
     inkscape:cy="338.97115"
     inkscape:window-width="1440"
     inkscape:window-height="890"
     inkscape:window-x="-6"
     inkscape:window-y="-6"
     inkscape:window-maximized="1"
     inkscape:current-layer="svg2" />
  <defs
     id="defs6" />
  <g
     id="g8"
     transform="translate(-54.203532,-5.1135407)">
    <path
       style="fill:#000000;fill-opacity:1;stroke:none;stroke-width:0.763465;stroke-linecap:round;stroke-linejoin:round"
       d="m 597.26156,5.1135407 c 0,0 -5.11354,38.8629093 -155.45164,85.9074843 C 291.47182,138.0656 207.60975,193.29184 161.58789,282.26745 c -46.02187,88.97561 -29.55357,162.71556 21.47687,213.746 41.7946,41.7946 83.91112,45.96944 96.13456,49.08999 0,0 -105.13933,78.4185 -162.61059,82.83936 -39.885619,3.06812 -62.385198,3.06812 -62.385198,24.545 0,21.47687 15.340622,28.63582 27.61312,27.61312 12.272497,-1.02271 87.952898,-23.52229 161.587888,-78.74853 73.63498,-55.22624 172.83767,-139.08831 227.04121,-230.10933 54.20353,-91.02103 75.6804,-142.15644 75.6804,-142.15644 0,0 -33.74937,127.83852 -98.17998,222.95038 -64.43062,95.11186 -121.70227,142.15643 -121.70227,142.15643 0,0 50.1127,62.3852 123.74768,62.3852 73.63499,0 139.08831,-51.13541 169.76956,-131.92935 30.68124,-80.79395 43.97645,-216.81413 26.59041,-309.88057 C 628.96551,121.70227 597.26156,5.1135407 597.26156,5.1135407 Z"
       id="path10933" />
  </g>
</svg>
