<svg xmlns="http://www.w3.org/2000/svg" xmlns:xlink="http://www.w3.org/1999/xlink" fill="#3C3C3B" version="1.1" id="Layer_1" x="0" y="0" width="300" height="100" viewBox="0 0 300 100" enable-background="new 0 0 300 100" xml:space="preserve">
  <path d="M287.11 95.26c-6.4 0-8.49-1.35-11.07-5.38l-35.06-54.97h-0.24v50.69c0 6.47-3.69 9.65-9.72 9.65 -6.03 0-9.72-3.18-9.72-9.65v-69.75c0-8.31 4.06-11.73 12.67-11.73 4.18 0 7.87 1.59 10.09 5.25l35.31 56.56h0.24v-52.16c0-6.47 3.69-9.65 9.72-9.65 6.03 0 9.72 3.18 9.72 9.65v69.02C299.05 90.74 295.6 95.26 287.11 95.26"/>
  <defs>
    <path id="SVGID_1_" d="M116.98 34.38C101.87 61.57 91.57 79.33 75.06 80.07c-16.14 0.72-23.87-14.37-23.87-30.38 0-19.06 10.46-29.93 23.13-29.93 18.45 0 15.01 15.88 26.7 15.88 6.03 0 9.1-3.42 9.1-9.04 0-8.55-12.67-22.96-35.8-22.96 -28.54 0-43.3 21.26-43.3 46.05 0 30.29 15.87 46.66 44.59 46.66 19.73 0 35.94-13.37 51.02-41.27 17.58-32.51 25.25-34.83 38.55-35.33 12.66-0.47 23.13 10.87 23.13 29.93 0 16-7.37 31.4-24.81 30.38 -31.74-1.85-23.77-39.68-23.77-39.68l-17.03 30.25c10.64 29.25 40.8 25.56 40.8 25.56 27.68 0 45.76-16.21 45.76-46.5 0-24.8-15.54-46.05-44.08-46.05C148.13 3.64 130.62 9.85 116.98 34.38"/>
  </defs>
  <use xlink:href="#SVGID_1_" overflow="visible"/>
  <clipPath id="SVGID_2_">
    <use xlink:href="#SVGID_1_" overflow="visible"/>
  </clipPath>
  <g clip-path="url(#SVGID_2_)">
    <defs>
      <rect id="SVGID_3_" x="-0.15" y="-0.5" width="301.44" height="98.91"/>
    </defs>
    <use xlink:href="#SVGID_3_" overflow="visible"/>
    <clipPath id="SVGID_4_">
      <use xlink:href="#SVGID_3_" overflow="visible"/>
    </clipPath>
  </g>
  <path d="M10.3 22.21c-5.17 0-9.35-4.15-9.35-9.28 0-5.13 4.18-9.28 9.35-9.28 5.17 0 9.35 4.15 9.35 9.28C19.65 18.06 15.47 22.21 10.3 22.21M10.3 95.26c-7.01 0-8.98-4.15-8.98-8.92V37.11c0-4.76 1.97-8.92 8.98-8.92s8.98 4.15 8.98 8.92V86.34C19.28 91.1 17.31 95.26 10.3 95.26"/>
</svg>
